<?xml version="1.0" encoding="UTF-8" standalone="no"?>
<!-- Generator: Adobe Illustrator 13.0.0, SVG Export Plug-In . SVG Version: 6.00 Build 14948)  -->

<svg
   xmlns:dc="http://purl.org/dc/elements/1.1/"
   xmlns:cc="http://creativecommons.org/ns#"
   xmlns:rdf="http://www.w3.org/1999/02/22-rdf-syntax-ns#"
   xmlns:svg="http://www.w3.org/2000/svg"
   xmlns="http://www.w3.org/2000/svg"
   xmlns:sodipodi="http://sodipodi.sourceforge.net/DTD/sodipodi-0.dtd"
   xmlns:inkscape="http://www.inkscape.org/namespaces/inkscape"
   id="Layer_1"
   enable-background="new 0 0 432 504"
   xml:space="preserve"
   viewBox="0 0 432 504"
   version="1.1"
   y="0px"
   x="0px"
   inkscape:version="0.91 r13725"
   sodipodi:docname="hacker.svg"><defs
     id="defs9" /><sodipodi:namedview
     pagecolor="#ffffff"
     bordercolor="#666666"
     borderopacity="1"
     objecttolerance="10"
     gridtolerance="10"
     guidetolerance="10"
     inkscape:pageopacity="0"
     inkscape:pageshadow="2"
     inkscape:window-width="1920"
     inkscape:window-height="1017"
     id="namedview7"
     showgrid="false"
     inkscape:zoom="0.66221111"
     inkscape:cx="843.19039"
     inkscape:cy="462.49274"
     inkscape:window-x="1358"
     inkscape:window-y="-8"
     inkscape:window-maximized="1"
     inkscape:current-layer="Layer_1" /><path
     d="m390.08 476.3s-1.651-166.13-31.616-199.76c-17.062-19.153-48.475-45.625-57.267-62.971-15.579 17.408-33.375 20.336-33.375 20.336 8.522-4.202 20.776-16.384 31.04-27.69-0.678-10.819-1.708-92.489-29.669-144.26-14.189-26.271-28.271-37.261-67.155-34.973-17.326 1.02-27.426 9.977-52.906 36.476-25.478 26.499-23.227 125.43-23.227 144.8 0 2.431-0.364 4.878-1.056 7.338 8.096 7.973 19.837 18.688 29.587 24.218l-33.762-14.747c-8.376 14.193-25.95 28.759-46.341 43.323-28.537 20.384-32.42 208.93-32.42 208.93h36.997c4.687-26.941 10.741-67.707 10.741-98.504 0 0 3.507 59.663-4.349 98.504h61.562c-4.048-33.227-8.706-61.568-8.706-61.568 6.11 23.874 10.635 44.209 13.928 61.568h6.112c-2.778-15.564-5.042-31.166-5.042-40.686 0 0 4.344 19.278 8.383 40.686h25.503c-2.705-48.87-13.979-117.46-13.979-117.46 14.497 56.645 20.116 93.486 21.343 117.46h19.862s9.889-165.5-6.776-212.19c0 0 0.004 0.007 0.012 0.017-2.597-4.816-5.571-8.996-8.972-12.396-44.846-44.844-54.354-72.017-56.392-122.98-2.038-50.958 40.531-84.593 61.936-85.612 16.287-0.776 51.979 29.556 61.151 49.94s6.685 78.133-20.832 126.03c-13.354 23.247-26.31 42.814-32.429 63.675 4.616 14.968 13.942 41.121 16.569 80.378 2.927 43.726 0 112.11 0 112.11h31.872c1.438-33.052-0.144-71.894-0.144-71.894 5.76 31.528 7.056 54.802 6.159 71.894h20.837c0.672-62.985 10.918-147.72 10.918-147.72-2.513 50.701-2.437 106.01-1.772 147.72h45.119c0.633-18.352 1.883-38.124 4.336-49.029 0 0 0.009 24.521-1.041 49.029h45.26zm-206.59-220.71s-29.856 9.005-49.288-10.427c0 0 14.22 13.28 49.29 10.43zm61.61 10.43c0.435-0.145 0.879-0.303 1.322-0.465-0.84 0.3-1.32 0.46-1.32 0.46zm1.78-0.63c16.941-6.272 39.923-23.066 39.923-23.066-12.42 12.43-33.67 20.79-39.92 23.07z"
     id="path3"
     fill="#404040" /><metadata
     id="metadata5"><rdf:RDF><cc:Work><dc:format>image/svg+xml</dc:format><dc:type
           rdf:resource="http://purl.org/dc/dcmitype/StillImage" /><cc:license
           rdf:resource="http://creativecommons.org/licenses/publicdomain/" /><dc:publisher><cc:Agent
             rdf:about="http://openclipart.org/"><dc:title>Openclipart</dc:title></cc:Agent></dc:publisher><dc:title></dc:title><dc:date>2011-05-08T09:05:16</dc:date><dc:description>A single color robe illustration.</dc:description><dc:source>https://openclipart.org/detail/137203/robe-by-jgm104</dc:source><dc:creator><cc:Agent><dc:title>jgm104</dc:title></cc:Agent></dc:creator><dc:subject><rdf:Bag><rdf:li>cape</rdf:li><rdf:li>coat</rdf:li><rdf:li>cover</rdf:li><rdf:li>robe</rdf:li><rdf:li>shawl</rdf:li></rdf:Bag></dc:subject></cc:Work><cc:License
         rdf:about="http://creativecommons.org/licenses/publicdomain/"><cc:permits
           rdf:resource="http://creativecommons.org/ns#Reproduction" /><cc:permits
           rdf:resource="http://creativecommons.org/ns#Distribution" /><cc:permits
           rdf:resource="http://creativecommons.org/ns#DerivativeWorks" /></cc:License></rdf:RDF></metadata><flowRoot
     id="flowRoot5478"
     xml:space="preserve"
     style="font-size:40px;line-height:125%;font-family:Sans;letter-spacing:0px;word-spacing:0px;fill:#000000"
     transform="matrix(0.45240893,0.00973234,-0.00809988,0.54358773,585.35862,62.182657)"><flowRegion
       id="flowRegion5480"><rect
         id="rect5482"
         y="-87.494003"
         width="395.98001"
         x="-763.67999"
         height="56.569" /></flowRegion><flowPara
       id="flowPara5484" /></flowRoot><rect
     style="fill:#ffffff;fill-opacity:1;stroke:none;stroke-width:2.31177616;stroke-linecap:round;stroke-linejoin:round;stroke-miterlimit:4;stroke-dasharray:none;stroke-opacity:1"
     id="rect4511-2"
     width="138.42198"
     height="188.5425"
     x="930.23273"
     y="-157.14427" /><path
     d="m 1001.4249,36.964075 c -2.92271,-0.27214 -7.59212,-1.98123 -10.34456,-3.78624 -3.41845,-2.24173 -13.1311,-11.87851 -18.28955,-18.14631 -2.62088,-3.18463 -6.27746,-7.5932697 -8.12601,-9.7969597 -8.08338,-9.63723 -12.31143,-16.0823603 -15.59331,-23.7687903 -2.26101,-5.29578 -3.14033,-8.50541 -5.15232,-18.80818 -2.17316,-11.12807 -3.28948,-20.64333 -3.50126,-29.84411 -0.10208,-4.44361 -0.39269,-15.0088 -0.64531,-23.47837 -0.47034,-15.767165 -0.24506,-21.570605 1.21781,-31.373445 1.14533,-7.67508 3.92391,-15.93982 6.46035,-19.2161 2.74584,-3.54646 14.41052,-8.18067 26.34843,-10.46792 5.87575,-1.12576 35.27753,-2.32234 43.58313,-1.77375 13.7892,0.91083 27.2377,4.01532 35.5065,8.19664 4.3551,2.20219 8.5049,5.9984 9.9951,9.14365 3.4522,7.28711 5.0441,17.68483 7.0143,45.814065 1.4533,20.7496 0.7709,37.29006 -2.0481,49.64806 -3.4434,15.09568 -7.2493,25.70015 -11.896,33.1477803 -5.7321,9.1871 -30.3248,35.8209997 -37.2775,40.3725197 -5.2217,3.41797 -10.7451,4.7426 -17.2517,4.13654 z m 3.0854,-91.56678 c -0.1215,-0.63989 -1.032,-0.5059 -1.2384,0.18227 -0.1139,0.37981 0.091,0.53145 0.5717,0.42252 0.4121,-0.0934 0.7122,-0.36561 0.6667,-0.60479 z m 36.9447,-27.76273 c 0.5093,-0.22225 0.6327,-0.45653 0.336,-0.63798 -0.9126,-0.55837 -7.4446,-1.07863 -9.8781,-0.78677 -2.5281,0.30325 -3.1879,0.58609 -2.641,1.13212 0.7487,0.74761 10.5987,0.9842 12.1831,0.29264 z m -62.25713,-1.32123 c 1.06826,-0.72309 -1.11944,-1.1903 -5.97398,-1.27589 -3.30613,-0.0583 -5.57477,0.11226 -6.83507,0.51373 -2.06456,0.65781 -2.39593,1.19256 -0.92696,1.49571 1.40888,0.29077 13.14881,-0.33605 13.7361,-0.73353 z m 0.3092,-18.153505 c 0.14491,-0.2555 0.15008,-0.75569 0.0116,-1.11156 -0.1969,-0.50567 -0.43464,-0.53947 -1.08828,-0.15468 -0.45997,0.27077 -0.83129,0.78024 -0.82513,1.13211 0.0128,0.73069 1.50389,0.83585 1.90187,0.13413 z m 31.41353,-1.64943 c 0.4102,-0.49252 0.6496,-0.99152 0.532,-1.10894 -0.4013,-0.40066 -2.8531,0.404 -2.8439,0.93331 0.023,1.33952 1.2642,1.43375 2.3119,0.1756 z m -15.7705,-2.86557 c -0.29804,-0.35878 -0.73663,-0.64741 -0.97468,-0.6414 -0.23805,0.006 -0.0835,0.39659 0.34351,0.86793 0.88438,0.97622 1.459,0.76996 0.63117,-0.22655 z"
     id="path3868-6"
     inkscape:connector-curvature="0"
     style="fill:none" /><g
     id="g3456"
     transform="matrix(0.93650575,0,0,0.9536796,-292.99085,17.72147)"><g
       id="g3449"><g
         id="g3433"><path
           inkscape:connector-curvature="0"
           id="path3373"
           d="m 526.74445,243.40159 c -4.58451,-1.50157 -8.31165,-4.1683 -14.92348,-10.67758 -7.94053,-7.81737 -26.3442,-30.01469 -28.76293,-34.692 -1.40963,-2.72592 -7.48683,-20.57148 -9.57153,-28.10657 -3.80893,-13.7673 -6.47592,-27.83505 -8.13555,-42.91329 -1.57862,-14.34221 -1.23928,-41.217988 0.69336,-54.914145 0.40038,-2.837374 0.80612,-3.041252 11.24594,-5.650893 36.98257,-9.244525 74.17497,-8.769502 110.33054,1.409145 6.28299,1.768811 8.02739,2.461928 8.3866,3.332325 0.78212,1.895097 2.09262,15.79511 2.62266,27.81744 1.28703,29.192998 -2.19459,58.683318 -10.55507,89.404428 -2.32069,8.52751 -4.84855,12.93694 -13.00318,22.68188 -6.23251,7.44797 -25.64789,27.1139 -28.70556,29.076 -5.99626,3.84779 -13.81299,5.13583 -19.6218,3.23326 z m 15.33988,-7.96769 c 5.10781,-1.91107 8.71775,-5.36392 14.29136,-13.66946 2.75338,-4.10296 8.07327,-11.66437 11.82198,-16.80314 3.7487,-5.13877 8.8467,-12.46996 11.32886,-16.29153 2.48218,-3.82157 5.28711,-7.59964 6.23319,-8.39572 1.55417,-1.30774 1.87074,-2.11524 3.28068,-8.36836 4.87685,-21.62891 7.39247,-47.0325 6.71903,-67.85117 -0.36963,-11.426568 -1.77367,-28.080122 -2.47885,-29.402019 -0.48321,-0.905814 -8.67076,-3.366107 -18.39792,-5.528433 -23.44207,-5.211119 -51.27588,-6.191932 -75.54661,-2.662128 -6.72746,0.978406 -21.31206,4.072134 -26.22606,5.56315 l -3.53538,1.072712 -0.33844,3.065221 c -3.1156,28.218187 -1.08414,58.125407 5.81302,85.579837 3.94329,15.69644 5.28946,19.31989 9.31302,25.06768 2.02747,2.8963 3.98317,5.82259 4.34602,6.50287 0.36284,0.68028 2.22741,3.39916 4.14349,6.04196 1.91607,2.6428 5.42023,7.60975 7.78701,11.03769 12.16108,17.61348 20.74103,26.06824 26.45421,26.06824 1.99028,0 1.98795,0.0768 0.27785,-9.12731 -1.61832,-8.71016 -1.6908,-13.88891 -0.27203,-19.43625 1.34225,-5.24812 1.34457,-5.19508 -0.31316,-7.16518 -1.34286,-1.5959 -2.09157,-1.89848 -9.30021,-3.75866 -1.32315,-0.34143 -3.00493,-1.10542 -3.73729,-1.69774 l -1.33154,-1.07694 4.00424,0.36981 c 2.20233,0.2034 10.13072,0.42745 17.61864,0.49789 13.378,0.12585 13.72103,0.10171 19.75424,-1.39046 8.47461,-2.09597 11.96553,-3.92416 16.175,-8.47076 3.50335,-3.78395 7.52546,-10.5348 7.2195,-12.11748 -0.11546,-0.59728 -0.93416,0.13448 -2.5543,2.28304 -1.3114,1.73915 -3.32409,4.18316 -4.47265,5.43114 l -2.08829,2.26907 -9.27523,0 c -7.95563,0 -9.27522,0.11582 -9.27522,0.81406 0,1.65995 -2.64306,1.95704 -14.41525,1.62035 -15.44308,-0.44169 -18.54751,-0.73767 -19.65351,-1.87378 -0.70785,-0.72711 -2.56505,-1.05866 -8.6431,-1.54295 -12.22115,-0.97377 -11.73331,-0.68426 -17.8528,-10.59483 -4.78611,-7.75115 -7.15628,-11.04503 -8.24208,-11.45423 -0.94905,-0.35765 -2.58672,-2.06184 -1.98137,-2.06184 0.1931,0 0.97928,0.4116 1.74705,0.91466 2.95833,1.93838 12.61023,0.4144 22.41714,-3.53952 2.93624,-1.18383 6.15885,-2.21873 7.16135,-2.29979 l 1.82274,-0.14738 0.16652,2.62881 c 0.14771,2.33188 0.0723,2.55064 -0.66738,1.93674 -0.45864,-0.38063 -0.83389,-1.26328 -0.83389,-1.96143 0,-1.56667 -0.82847,-1.64635 -1.62588,-0.15638 -0.66074,1.2346 -3.54798,2.62703 -5.43112,2.61927 -1.69156,-0.007 -10.63745,3.33853 -10.9289,4.08709 -0.29814,0.76575 2.39303,6.11803 4.5916,9.13191 l 1.65524,2.26907 6.80385,-0.003 c 3.74212,-0.002 7.68116,-0.24665 8.75341,-0.54448 2.15713,-0.59916 5.1635,-3.587 6.25101,-6.2125 0.67992,-1.64146 0.63968,-1.73192 -1.75021,-3.93484 -1.34536,-1.23989 -2.44611,-2.46419 -2.44611,-2.72043 0,-1.23744 8.67242,0.24341 13.44228,2.29531 2.35697,1.01392 2.65712,1.02805 5.33898,0.2514 1.56289,-0.4526 5.55164,-1.40655 8.86388,-2.11989 l 6.02226,-1.29698 0.58559,1.09418 c 0.75539,1.41146 -0.1338,2.09332 -4.39393,3.36943 -3.7526,1.12408 -3.98804,1.92795 -1.63422,5.57976 3.32101,5.15237 5.68447,6.34401 12.61838,6.36212 5.86574,0.0153 7.28661,-0.59468 10.66723,-4.57956 3.20049,-3.77256 4.76534,-6.36829 4.2965,-7.1269 -0.1628,-0.26342 -3.59624,-2.21033 -7.62987,-4.32647 -4.03362,-2.11615 -7.69425,-4.15706 -8.13471,-4.53537 -1.48988,-1.27962 -2.32789,-1.10558 -2.71012,0.56283 l -0.36693,1.60169 -0.0632,-1.62839 c -0.14695,-3.7883 2.26757,-3.79519 10.77905,-0.0308 11.73865,5.19178 17.82611,6.5477 21.86097,4.8693 0.78041,-0.32463 0.71484,-0.002 -0.39399,1.93748 -0.83692,1.46398 -1.33261,3.16628 -1.33666,4.59026 -0.004,1.24483 -0.47787,3.50408 -1.05408,5.02054 -1.63811,4.31114 -7.06914,13.43573 -12.34805,20.74578 -2.65067,3.67055 -6.16143,8.55668 -7.80168,10.85806 -1.64025,2.30139 -4.16541,5.4247 -5.61147,6.94068 -2.5089,2.63024 -2.61339,2.68346 -2.28392,1.16332 0.59503,-2.74549 3.76223,-9.07015 7.19798,-14.37382 1.81742,-2.80552 3.22273,-5.32011 3.1229,-5.58799 -0.0998,-0.26788 -2.70417,0.4668 -5.78743,1.63261 -7.0454,2.66393 -10.75486,3.88688 -14.14831,4.66446 -3.17935,0.72852 -4.97993,1.94267 -6.34953,4.28155 -0.9664,1.65033 -0.97223,1.88449 -0.13347,5.35957 1.13436,4.69979 1.1053,6.62981 -0.18406,12.22428 -1.35419,5.87581 -2.67616,13.62427 -2.67616,15.68584 0,1.46268 0.12593,1.57331 1.48202,1.30209 0.81512,-0.16302 2.80739,-0.79229 4.42728,-1.39837 z m -0.57031,-52.93623 c 0,-0.84655 -6.93756,-9.98873 -7.84388,-10.33651 -0.42672,-0.16375 -1.19025,-0.0759 -1.69674,0.19512 -1.24093,0.66413 -9.14582,8.96962 -9.14582,9.60931 0,0.67843 2.57312,0.90888 11.34533,1.01613 4.93417,0.0603 7.34111,-0.0984 7.34111,-0.48405 z"
           style="fill:#000000;fill-opacity:1" /><path
           sodipodi:nodetypes="cscscccscccscsscccccccccccccccccscccssccsccccssccssccccsccsccccssscssscccccscsscccssccccssscsccccscscssccccsccscsccc"
           style="fill:#000000"
           inkscape:connector-curvature="0"
           id="path3072-2"
           d="m 585.26699,134.36917 c -2.2767,-0.87396 -5.5196,-1.02383 -9.299,-0.42975 l -2.5093,0.39441 2.0741,-1.29489 c 1.9451,-1.2143 2.0668,-1.39513 1.9549,-2.90462 -0.2856,-3.85347 -3.923,-7.82099 -9.1735,-10.00602 l -3.1574,-1.3139 -4.363,0.5314 c -7.0396,0.85742 -11.9017,2.67777 -14.6557,5.48726 -1.3018,1.32808 -1.3674,1.85559 -0.45,3.61862 0.8441,1.6223 0.3621,1.6295 -1.4032,0.0209 -1.2309,-1.12167 -1.3372,-1.38471 -0.9181,-2.27091 1.1163,-2.36002 3.3021,-3.78957 9.1433,-5.9794 8.5609,-3.20974 14.2279,-3.49404 19.5731,-0.98188 3.0315,1.42475 3.7343,2.12516 6.6305,6.60728 l 1.8058,2.79468 2.404,-0.11213 c 1.6675,-0.0778 2.6536,-0.35776 3.2184,-0.91375 0.4478,-0.44088 0.8173,-0.62188 0.8212,-0.40219 0,0.21967 -0.366,0.65444 -0.8218,0.96615 -0.8482,0.57993 -1.1347,2.31496 -0.3792,2.29587 0.2305,-0.006 0.4223,0.16756 0.4261,0.38529 0,0.21774 -0.3246,0.3218 -0.7298,0.23125 -0.4053,-0.0906 -1.0163,0.0403 -1.3579,0.29096 -0.6269,0.4599 -0.4767,0.62726 2.9684,3.30607 0.8503,0.66115 0.6726,0.62955 -1.8022,-0.32048 z m -97.38601,-1.47449 c -1.6223,-0.44204 -4.31888,-0.87563 -5.99285,-0.96355 -2.2099,-0.1161 -3.04611,-0.32621 -3.05383,-0.76733 -0.006,-0.33408 -0.34126,-0.629 -0.74537,-0.65541 -0.4041,-0.0264 -1.00448,-0.0611 -1.33422,-0.0772 -0.32974,-0.016 -0.87108,-0.6865 -1.20303,-1.48987 -0.59298,-1.43516 -0.58658,-1.45533 0.36906,-1.15621 3.77136,1.18054 5.92344,0.40083 7.62606,-2.76296 1.47195,-2.7355 4.22774,-5.43264 6.96175,-6.81307 2.32285,-1.17311 2.68425,-1.22887 7.31914,-1.12903 7.1518,0.15403 8.4411,0.91455 1.7466,1.02995 -6.3079,0.1087 -8.83218,0.98848 -11.7211,4.08507 -2.22037,2.37979 -3.98734,6.21049 -3.33814,7.23713 0.63919,1.01043 2.94711,2.08042 6.08067,2.81917 1.50545,0.35489 2.91949,0.81822 3.1423,1.02963 0.71895,0.68217 -2.78395,0.45132 -5.85692,-0.38598 z m 81.85651,-3.09719 c -2.5949,-1.44251 -9.8212,-1.67906 -14.1907,-0.46442 -2.7845,0.77405 -2.8808,0.77089 -5.9345,-0.19263 -2.459,-0.77585 -3.1072,-1.15791 -3.1191,-1.83814 -0.021,-1.17708 4.1684,-3.40779 8.9124,-4.74567 3.3052,-0.9323 4.0853,-1.00208 7.5832,-0.67823 2.1445,0.19854 4.7698,0.73568 5.8338,1.19366 4.4152,1.90052 6.9423,4.53602 5.8735,6.12563 -0.701,1.04268 -3.5437,1.38669 -4.9586,0.60011 z m -55.2802,0.0506 c 0,-0.15154 0.3917,-0.8813 0.8764,-1.62168 0.5481,-0.83746 0.8531,-1.94397 0.8069,-2.92818 l -0.074,-1.58201 0.837,1.01045 c 1.5036,1.81525 1.0015,3.43617 -1.5069,4.86487 -0.5139,0.29266 -0.9365,0.40812 -0.9392,0.25658 z m -27.27104,-0.70534 c -2.26321,-1.11075 -2.13098,-2.1574 0.53996,-4.27342 3.16093,-2.50423 5.64503,-3.47787 9.81547,-3.84683 2.77121,-0.24518 4.34191,-0.13364 7.00261,0.49727 3.9591,0.9389 7.691,2.6177 9.064,4.07776 0.8456,0.89907 0.8846,1.09122 0.3418,1.68135 -0.9295,1.01039 -5.2229,1.9569 -6.1831,1.36307 -1.5009,-0.92818 -5.8786,-1.38881 -10.4035,-1.09463 -3.63429,0.23629 -4.88659,0.49543 -6.28618,1.30087 -2.10092,1.20887 -2.03752,1.20409 -3.89068,0.29457 z m 51.39014,-10.96653 c -0.033,-1.88613 0.75,-3.14739 3.0774,-4.95698 0.4654,-0.36186 1.354,-1.39154 1.9747,-2.28816 1.0702,-1.54594 1.0862,-1.64305 0.309,-1.87908 -1.0484,-0.31838 -1.4961,-2.37739 -0.721,-3.31632 0.8977,-1.08751 0.6923,-1.35717 -0.7871,-1.03357 -0.8442,0.18464 -1.6484,0.0836 -2.1262,-0.26717 -0.7399,-0.54316 -0.7397,-0.6375 0.01,-2.53712 1.1562,-2.945219 4.3657,-6.895183 7.059,-8.68796 2.9478,-1.962072 6.9535,-3.66886 11.6304,-4.955488 4.4778,-1.231926 12.6784,-1.502546 16.3064,-0.538175 3.1766,0.844375 6.6961,3.310981 8.6159,6.038433 2.7764,3.944131 4.4396,12.44553 2.6723,13.65821 -0.4776,0.32759 -1.1518,0.0846 -2.6225,-0.94524 l -1.9798,-1.38618 -2.8829,0.64188 c -1.5856,0.35302 -3.9947,0.57322 -5.3534,0.4893 -3.3305,-0.20568 -8.3995,0.5559 -12.7576,1.91673 -3.8039,1.18776 -4.819,1.6742 -6.8133,3.26521 -2.1151,1.68724 -4.608,2.51716 -7.826,2.60533 -3.7398,0.10243 -4.8776,0.69521 -5.9278,3.08763 -1.3111,2.98755 -1.8154,3.28384 -1.8539,1.08907 z m -18.975,-0.82688 c -0.6358,-0.67287 -1.8771,-1.5458 -2.7584,-1.93989 -0.8814,-0.39409 -2.4381,-1.1003 -3.4594,-1.56937 -1.0212,-0.46907 -2.8372,-1.79479 -4.0355,-2.94604 -2.6863,-2.58091 -3.6941,-3.11393 -6.5014,-3.43846 -1.214,-0.14031 -4.1524,-0.89491 -6.52965,-1.67684 -6.90225,-2.27034 -11.86793,-2.10025 -17.66361,0.60493 l -2.45314,1.14502 -0.87985,-0.8785 c -1.31027,-1.30835 -1.34156,-6.37867 -0.0588,-9.537623 1.03071,-2.53811 3.43618,-5.179741 5.65426,-6.209359 3.24782,-1.507548 10.32334,-3.150631 12.71426,-2.952441 6.57813,0.545305 10.74193,1.995463 19.23183,6.6983 6.3233,3.502404 7.2766,4.678327 5.0728,6.257293 -1.2778,0.91559 -1.3798,3.02236 -0.1865,3.85247 0.9143,0.63608 1.0419,3.00304 0.2106,3.90673 -0.8246,0.89648 -0.5815,1.66403 1.1498,3.62891 1.4358,1.62959 2.6645,4.25822 2.6908,5.75641 0.015,0.8809 -1.0129,0.55272 -2.1981,-0.70151 z" /></g><path
         style="fill:#000000;fill-opacity:1"
         d="m 506.18657,208.41188 c -3.04995,-1.89611 -5.69953,-4.89771 -9.05749,-10.26084 -1.56007,-2.49165 -5.35422,-8.36468 -8.43145,-13.05118 -8.51432,-12.96697 -12.07783,-22.74091 -8.52519,-23.38274 0.7615,-0.13757 2.73763,2.82887 6.03151,9.0541 3.48615,6.58863 6.1361,10.51075 9.18891,13.60023 2.35949,2.38783 3.8075,4.34151 3.21781,4.34151 -0.58969,0 -1.07217,0.31287 -1.07217,0.69527 0,0.77599 7.69433,14.35317 10.00702,17.65808 1.88273,2.69048 1.46681,3.10231 -1.35895,1.34557 z"
         id="path3445"
         inkscape:connector-curvature="0" /><path
         style="fill:#ffffff;fill-opacity:1"
         d="m 536.53226,235.33815 c 0.0261,-0.69311 0.92223,-5.94736 1.99132,-11.67611 1.33244,-7.13994 1.67748,-11.8417 1.09703,-14.94916 -1.29348,-6.92465 0.28071,-8.44316 12.89973,-12.44346 5.97894,-1.89536 11.01994,-3.29347 11.20223,-3.10692 0.18229,0.18654 -1.51855,3.46248 -3.77964,7.27985 -2.26109,3.81737 -4.44761,8.3822 -4.85894,10.14407 l -0.74788,3.20339 2.91997,-2.66949 c 3.74809,-3.42658 17.8541,-23.16514 22.50647,-31.49334 1.9705,-3.52739 4.07453,-8.61414 4.67561,-11.30387 0.60108,-2.68974 1.35411,-5.57279 1.6734,-6.40678 0.4468,-1.16704 -0.59029,-1.55234 -4.50196,-1.67259 -3.10619,-0.0955 -8.69204,-1.65251 -14.36526,-4.00423 -5.10553,-2.11641 -10.28608,-3.84801 -11.51233,-3.84801 -2.30756,0 -4.11048,2.72258 -2.68215,4.05029 0.4466,0.41514 1.01542,0.18745 1.26404,-0.50598 0.46396,-1.29403 0.47845,-1.28766 12.36119,5.43653 l 5.09713,2.88436 -1.89374,3.2554 c -3.09051,5.31269 -6.39691,7.30313 -12.13156,7.30313 -6.42261,0 -9.72861,-1.46665 -12.00943,-5.32777 -2.35858,-3.99276 -2.35134,-4.01425 1.95912,-5.81528 3.79292,-1.58478 4.82768,-3.46701 2.40254,-4.37025 -0.73411,-0.27342 -4.97779,0.37707 -9.4304,1.44553 -6.70799,1.60967 -8.73036,1.72291 -11.79856,0.66067 -5.5911,-1.93568 -12.67358,-2.94238 -12.67358,-1.8014 0,0.54788 0.96101,1.86586 2.13559,2.92884 2.84949,2.57875 2.69728,3.86741 -0.85928,7.2748 -2.70868,2.59508 -3.76386,2.86927 -11.04216,2.86927 l -8.04729,0 -2.8421,-5.22188 -2.8421,-5.22188 4.2957,-1.7188 c 2.36263,-0.94534 4.88661,-1.72176 5.60884,-1.72538 0.72222,-0.004 2.6264,-0.69166 4.23149,-1.52898 1.69446,-0.88395 3.17628,-1.1051 3.53336,-0.52733 0.89326,1.44532 2.62731,1.2195 2.60821,-0.33965 -0.0509,-4.15598 -1.64166,-4.25789 -12.3859,-0.79351 -8.61802,2.7788 -11.70497,3.30298 -16.81871,2.85593 -4.20912,-0.36797 -5.91029,-0.19451 -5.18688,0.52889 0.59204,0.59205 0.84194,2.83394 0.55531,4.98198 -0.40854,3.06173 0.32123,5.52041 3.37777,11.3801 5.71099,10.94855 19.26532,30.90616 22.37302,32.9424 5.33357,3.49469 5.14503,2.02522 -1.09414,-8.52791 -2.70859,-4.58137 -5.04813,-9.45424 -5.199,-10.8286 -0.15087,-1.37437 -1.53857,-3.81844 -3.08378,-5.4313 -3.78056,-3.94605 -3.54406,-4.50568 1.19476,-2.82722 5.205,1.84359 16.97694,3.6015 32.30085,4.82351 12.49269,0.99623 19.79452,0.58793 20.87945,-1.16752 0.33138,-0.53619 4.51206,-0.97489 9.29039,-0.97489 7.97348,0 8.93414,-0.23594 11.68274,-2.86926 4.20908,-4.03256 3.7346,-1.58273 -0.69596,3.59338 -7.22368,8.43925 -18.86744,11.15345 -43.77098,10.20316 -16.03386,-0.61183 -18.25832,0.41503 -7.60689,3.51148 7.82296,2.2742 9.43036,4.22855 7.92912,9.64062 -1.13088,4.07694 -0.75561,15.71389 0.78165,24.23842 0.66135,3.66733 0.51729,4.00424 -1.71222,4.00424 -6.35875,0 -39.93711,-43.31111 -45.70365,-58.95094 -3.28303,-8.90414 -7.09214,-25.22773 -9.41664,-40.35415 -1.95375,-12.71385 -2.7447,-54.005944 -1.14893,-59.980588 0.88744,-3.322581 2.94265,-4.144162 18.14847,-7.254927 30.15944,-6.169939 63.90223,-5.377404 94.16053,2.2116 4.79519,1.202669 9.29457,2.542691 9.99864,2.977826 4.01318,2.480282 4.16079,52.255489 0.23149,78.063039 -2.93932,19.30548 -4.35761,24.12977 -8.94675,30.43221 -2.13818,2.93644 -9.95393,13.98813 -17.36834,24.55932 -17.25703,24.60445 -18.72819,26.19555 -26.20299,28.3393 -2.13618,0.61264 -3.04027,0.49713 -3.00704,-0.38418 z m 50.3303,-101.40248 c -1.21482,-1.46377 -1.16458,-3.70289 0.12953,-5.77329 0.57933,-0.92686 -0.18201,-1.11299 -2.80884,-0.68671 -3.23542,0.52503 -3.83961,0.2029 -5.91364,-3.15296 -3.27475,-5.29866 -8.60733,-7.56881 -16.16857,-6.88318 -10.94384,0.99235 -22.85494,8.54752 -18.10437,11.48353 0.72341,0.44709 6.07744,0.64474 11.89785,0.43921 5.82042,-0.20552 11.75851,0.0734 13.19577,0.61986 3.12157,1.18682 5.83513,0.35286 5.83513,-1.79331 0,-0.85276 0.48051,-1.2535 1.0678,-0.89054 1.72867,1.06838 1.22307,4.50461 -0.80085,5.44292 -1.32974,0.61647 -0.17493,1.06115 4.00424,1.54189 3.23008,0.37156 6.53235,0.75389 7.33837,0.84962 1.07585,0.12777 1.16295,-0.19049 0.32758,-1.19704 z m -93.08968,-0.67966 c 0,-0.54063 -1.56165,-1.3272 -3.47034,-1.74793 l -3.47034,-0.76497 4.80508,-1.43486 c 4.97483,-1.48555 23.67526,-1.60153 22.78562,-0.14132 -0.26836,0.44046 -0.0379,0.80084 0.51215,0.80084 1.7553,0 3.45731,-2.87195 2.76743,-4.66974 -0.70378,-1.83401 -2.57367,-2.40388 -2.57367,-0.78435 0,0.52398 -1.7439,0.0636 -3.87534,-1.02307 -2.13144,-1.08667 -6.02333,-2.29787 -8.64865,-2.69156 -4.27008,-0.64034 -6.26583,-0.30567 -14.17093,2.37632 -0.88093,0.29888 -0.40042,-0.43609 1.0678,-1.63327 1.64075,-1.33786 5.13848,-2.47149 9.07627,-2.94166 l 6.40678,-0.76495 -4.27118,-0.9379 c -6.45558,-1.41755 -11.50353,0.51885 -16.2608,6.23765 -3.31876,3.98955 -4.54398,4.76724 -6.96378,4.42018 -1.61504,-0.23164 -2.92908,-0.14401 -2.92009,0.19475 0.0551,2.07687 2.51247,3.44243 8.58257,4.76942 8.47123,1.85189 10.62142,2.00097 10.62142,0.73642 z m 52.8011,-18.84791 c 2.37931,-0.39961 6.4883,-1.85027 9.1311,-3.22369 6.97432,-3.62444 25.94435,-6.78647 27.3238,-4.55449 0.31071,0.50277 1.49761,0.91413 2.63753,0.91413 4.57516,0 0.79978,-14.003097 -4.75703,-17.644055 -9.79002,-6.414671 -31.17149,-2.315595 -38.1465,7.313129 -3.29164,4.543966 -4.0034,8.195326 -1.59753,8.195326 2.7158,0 2.69507,5.05963 -0.0312,7.62084 -1.40422,1.3192 -2.50125,3.57557 -2.48538,5.1119 l 0.0284,2.75031 1.7854,-2.87842 c 1.27347,-2.05308 3.0258,-3.08675 6.11142,-3.60498 z m -24.73825,1.91107 c -0.37091,-1.00895 -1.36377,-2.91188 -2.20636,-4.22875 -0.84259,-1.31686 -1.2306,-3.17967 -0.86225,-4.13957 0.36835,-0.95991 0.12209,-2.40514 -0.54724,-3.21164 -0.9154,-1.10298 -0.89036,-1.85989 0.10103,-3.05445 2.29095,-2.760417 0.30741,-4.775006 -9.18688,-9.330681 -7.7494,-3.718428 -10.29258,-4.430797 -15.81806,-4.430797 -7.80762,0 -15.49687,3.232676 -17.76359,7.468079 -1.55548,2.906439 -2.02546,10.415199 -0.73281,11.707849 0.41381,0.41382 3.42219,-0.0874 6.68527,-1.11373 5.78921,-1.82093 6.16379,-1.80907 15.46753,0.4898 5.24405,1.29576 10.12296,3.06482 10.84202,3.93124 0.71907,0.86642 3.58599,2.72996 6.37093,4.1412 2.78495,1.41124 5.371,3.06337 5.74679,3.6714 1.06963,1.7307 2.65619,0.14718 1.90362,-1.89995 z"
         id="path3447"
         inkscape:connector-curvature="0" /></g></g></svg>